# xmcd CD database file
#
# Track frame offsets:
#	150
#	24628
#	29359
#	49930
#	76390
#	86123
#	103175
#	129785
#	133187
#	165988
#
# Disc length: 2555 seconds
#
# Revision: 0
# Processed by: cddbd v1.5.2PL0 Copyright (c) Steve Scherf et al.
# Submitted via: CDex 1.51
#
DISCID=7c09f90a
DTITLE=Matt Katsis - Bare Bones
DYEAR=2013
DGENRE=Blues
TTITLE0=Lies
TTITLE1=Assimilate
TTITLE2=Aint that just life
TTITLE3=Voodoo Child
TTITLE4=Lo-fi Blues
TTITLE5=In the moonlight
TTITLE6=Waiting
TTITLE7=Vista
TTITLE8=Sundown
TTITLE9=Awake
EXTD=YEAR: 2013
EXTT0=
EXTT1=
EXTT2=
EXTT3=
EXTT4=
EXTT5=
EXTT6=
EXTT7=
EXTT8=
EXTT9=
PLAYORDER=
